<svg width="64" height="64" viewBox="0 0 64 64" fill="none" xmlns="http://www.w3.org/2000/svg">
<rect width="64" height="64" rx="12" fill="#DBEAFE"/>
<g clip-path="url(#clip0_2_354)">
<path d="M37.3781 22.0907C37.6547 21.4485 37.4484 20.6985 36.8812 20.286C36.3141 19.8735 35.5406 19.911 35.0109 20.3704L23.0109 30.8704C22.5422 31.2829 22.3734 31.9438 22.5937 32.5251C22.8141 33.1063 23.3766 33.5001 24 33.5001H29.2266L25.6219 41.9094C25.3453 42.5516 25.5516 43.3016 26.1187 43.7141C26.6859 44.1266 27.4594 44.0891 27.9891 43.6297L39.9891 33.1297C40.4578 32.7172 40.6266 32.0563 40.4062 31.4751C40.1859 30.8938 39.6281 30.5047 39 30.5047H33.7734L37.3781 22.0907Z" fill="#2563EB"/>
</g>
<defs>
<clipPath id="clip0_2_354">
<path d="M21 20H42V44H21V20Z" fill="white"/>
</clipPath>
</defs>
</svg>
