<svg width="64" height="64" viewBox="0 0 64 64" fill="none" xmlns="http://www.w3.org/2000/svg">
<rect width="64" height="64" rx="12" fill="#FEE2E2"/>
<g clip-path="url(#clip0_2_286)">
<path d="M32.5 21.5C28.7125 21.5 25.6797 23.225 23.4719 25.2781C21.2782 27.3125 19.811 29.75 19.1172 31.4234C18.9625 31.7937 18.9625 32.2062 19.1172 32.5766C19.811 34.25 21.2782 36.6875 23.4719 38.7219C25.6797 40.775 28.7125 42.5 32.5 42.5C36.2875 42.5 39.3204 40.775 41.5282 38.7219C43.7219 36.6828 45.1891 34.25 45.8875 32.5766C46.0422 32.2062 46.0422 31.7937 45.8875 31.4234C45.1891 29.75 43.7219 27.3125 41.5282 25.2781C39.3204 23.225 36.2875 21.5 32.5 21.5ZM25.75 32C25.75 30.2098 26.4612 28.4929 27.7271 27.227C28.9929 25.9612 30.7098 25.25 32.5 25.25C34.2903 25.25 36.0071 25.9612 37.273 27.227C38.5389 28.4929 39.25 30.2098 39.25 32C39.25 33.7902 38.5389 35.5071 37.273 36.773C36.0071 38.0388 34.2903 38.75 32.5 38.75C30.7098 38.75 28.9929 38.0388 27.7271 36.773C26.4612 35.5071 25.75 33.7902 25.75 32ZM32.5 29C32.5 30.6547 31.1547 32 29.5 32C29.1672 32 28.8485 31.9437 28.5485 31.8453C28.2907 31.7609 27.9907 31.9203 28 32.1922C28.0141 32.5156 28.061 32.8391 28.15 33.1625C28.7922 35.5625 31.2625 36.9875 33.6625 36.3453C36.0625 35.7031 37.4875 33.2328 36.8454 30.8328C36.3251 28.8875 34.6047 27.5797 32.6922 27.5C32.4204 27.4906 32.261 27.7859 32.3454 28.0484C32.4438 28.3484 32.5 28.6672 32.5 29Z" fill="#DC2626"/>
</g>
<defs>
<clipPath id="clip0_2_286">
<path d="M19 20H46V44H19V20Z" fill="white"/>
</clipPath>
</defs>
</svg>
