<svg width="64" height="64" viewBox="0 0 64 64" fill="none" xmlns="http://www.w3.org/2000/svg">
<rect width="64" height="64" rx="12" fill="#CCFBF1"/>
<g clip-path="url(#clip0_2_400)">
<path d="M32 20C30.0406 20 28.3719 21.2516 27.7578 23H26C24.3453 23 23 24.3453 23 26V41C23 42.6547 24.3453 44 26 44H38C39.6547 44 41 42.6547 41 41V26C41 24.3453 39.6547 23 38 23H36.2422C35.6281 21.2516 33.9594 20 32 20ZM32 23C32.3978 23 32.7794 23.158 33.0607 23.4393C33.342 23.7206 33.5 24.1022 33.5 24.5C33.5 24.8978 33.342 25.2794 33.0607 25.5607C32.7794 25.842 32.3978 26 32 26C31.6022 26 31.2206 25.842 30.9393 25.5607C30.658 25.2794 30.5 24.8978 30.5 24.5C30.5 24.1022 30.658 23.7206 30.9393 23.4393C31.2206 23.158 31.6022 23 32 23ZM37.2969 32.7969L31.2969 38.7969C30.8562 39.2375 30.1438 39.2375 29.7078 38.7969L26.7031 35.7969C26.2625 35.3562 26.2625 34.6438 26.7031 34.2078C27.1438 33.7719 27.8563 33.7672 28.2922 34.2078L30.4953 36.4109L35.7031 31.2031C36.1438 30.7625 36.8562 30.7625 37.2922 31.2031C37.7281 31.6438 37.7328 32.3562 37.2922 32.7922L37.2969 32.7969Z" fill="#0D9488"/>
</g>
<defs>
<clipPath id="clip0_2_400">
<path d="M23 20H41V44H23V20Z" fill="white"/>
</clipPath>
</defs>
</svg>
