<svg width="64" height="64" viewBox="0 0 64 64" fill="none" xmlns="http://www.w3.org/2000/svg">
<rect width="64" height="64" rx="12" fill="#F3E8FF"/>
<g clip-path="url(#clip0_2_385)">
<path d="M35.0001 21.5H41.0001C41.8298 21.5 42.5001 22.1703 42.5001 23C42.5001 23.8297 41.8298 24.5 41.0001 24.5H35.6751C35.4313 25.7094 34.6016 26.7078 33.5001 27.1859V41H41.0001C41.8298 41 42.5001 41.6703 42.5001 42.5C42.5001 43.3297 41.8298 44 41.0001 44H32.0001H23.0001C22.1704 44 21.5001 43.3297 21.5001 42.5C21.5001 41.6703 22.1704 41 23.0001 41H30.5001V27.1859C29.3985 26.7031 28.5688 25.7047 28.3251 24.5H23.0001C22.1704 24.5 21.5001 23.8297 21.5001 23C21.5001 22.1703 22.1704 21.5 23.0001 21.5H29.0001C29.6845 20.5906 30.772 20 32.0001 20C33.2282 20 34.3157 20.5906 35.0001 21.5ZM37.6063 35H44.3938L41.0001 29.1781L37.6063 35ZM41.0001 39.5C38.0516 39.5 35.6001 37.9062 35.0938 35.8016C34.972 35.2859 35.1407 34.7563 35.4079 34.2969L39.8704 26.6469C40.1048 26.2438 40.536 26 41.0001 26C41.4641 26 41.8954 26.2484 42.1298 26.6469L46.5923 34.2969C46.8595 34.7563 47.0282 35.2859 46.9063 35.8016C46.4001 37.9062 43.9485 39.5 41.0001 39.5ZM22.9438 29.1781L19.5501 35H26.3423L22.9438 29.1781ZM17.0423 35.8016C16.9204 35.2859 17.0891 34.7563 17.3563 34.2969L21.8188 26.6469C22.0532 26.2438 22.4845 26 22.9485 26C23.4126 26 23.8438 26.2484 24.0782 26.6469L28.5407 34.2969C28.8079 34.7563 28.9766 35.2859 28.8548 35.8016C28.3438 37.9062 25.8923 39.5 22.9438 39.5C19.9954 39.5 17.5485 37.9062 17.0423 35.8016Z" fill="#9333EA"/>
</g>
<defs>
<clipPath id="clip0_2_385">
<path d="M17 20H47V44H17V20Z" fill="white"/>
</clipPath>
</defs>
</svg>
