<svg width="64" height="64" viewBox="0 0 64 64" fill="none" xmlns="http://www.w3.org/2000/svg">
<rect width="64" height="64" rx="12" fill="#FCE7F3"/>
<g clip-path="url(#clip0_2_369)">
<path d="M23.75 20C24.7446 20 25.6984 20.3951 26.4017 21.0983C27.1049 21.8016 27.5 22.7554 27.5 23.75C27.5 24.7446 27.1049 25.6984 26.4017 26.4017C25.6984 27.1049 24.7446 27.5 23.75 27.5C22.7554 27.5 21.8016 27.1049 21.0983 26.4017C20.3951 25.6984 20 24.7446 20 23.75C20 22.7554 20.3951 21.8016 21.0983 21.0983C21.8016 20.3951 22.7554 20 23.75 20ZM41 20C41.9946 20 42.9484 20.3951 43.6516 21.0983C44.3549 21.8016 44.75 22.7554 44.75 23.75C44.75 24.7446 44.3549 25.6984 43.6516 26.4017C42.9484 27.1049 41.9946 27.5 41 27.5C40.0054 27.5 39.0516 27.1049 38.3484 26.4017C37.6451 25.6984 37.25 24.7446 37.25 23.75C37.25 22.7554 37.6451 21.8016 38.3484 21.0983C39.0516 20.3951 40.0054 20 41 20ZM17 34.0016C17 31.2406 19.2406 29 22.0016 29H24.0031C24.7484 29 25.4563 29.1641 26.0938 29.4547C26.0328 29.7922 26.0047 30.1438 26.0047 30.5C26.0047 32.2906 26.7922 33.8984 28.0344 35C28.025 35 28.0156 35 28.0016 35H17.9984C17.45 35 17 34.55 17 34.0016ZM35.9984 35C35.9891 35 35.9797 35 35.9656 35C37.2125 33.8984 37.9953 32.2906 37.9953 30.5C37.9953 30.1438 37.9625 29.7969 37.9062 29.4547C38.5438 29.1594 39.2516 29 39.9969 29H41.9984C44.7594 29 47 31.2406 47 34.0016C47 34.5547 46.55 35 46.0016 35H35.9984ZM27.5 30.5C27.5 29.3065 27.9741 28.1619 28.818 27.318C29.6619 26.4741 30.8065 26 32 26C33.1935 26 34.3381 26.4741 35.182 27.318C36.0259 28.1619 36.5 29.3065 36.5 30.5C36.5 31.6935 36.0259 32.8381 35.182 33.682C34.3381 34.5259 33.1935 35 32 35C30.8065 35 29.6619 34.5259 28.818 33.682C27.9741 32.8381 27.5 31.6935 27.5 30.5ZM23 42.7484C23 39.2984 25.7984 36.5 29.2484 36.5H34.7516C38.2016 36.5 41 39.2984 41 42.7484C41 43.4375 40.4422 44 39.7484 44H24.2516C23.5625 44 23 43.4422 23 42.7484Z" fill="#DB2777"/>
</g>
<defs>
<clipPath id="clip0_2_369">
<path d="M17 20H47V44H17V20Z" fill="white"/>
</clipPath>
</defs>
</svg>
