<svg width="64" height="64" viewBox="0 0 64 64" fill="none" xmlns="http://www.w3.org/2000/svg">
<rect width="64" height="64" rx="12" fill="#FEF9C3"/>
<path d="M47 44H17V20H47V44Z" stroke="#E5E7EB"/>
<path d="M32.1594 23.9937L27.6219 27.6687C26.8672 28.2781 26.7219 29.375 27.2938 30.1578C27.8984 30.9922 29.075 31.1562 29.8859 30.5234L34.5406 26.9047C34.8688 26.6516 35.3375 26.7078 35.5953 27.0359C35.8531 27.3641 35.7922 27.8328 35.4641 28.0906L34.4844 28.85L41 34.85V26H40.9672L40.7844 25.8828L37.3812 23.7031C36.6641 23.2437 35.825 23 34.9719 23C33.95 23 32.9562 23.3516 32.1594 23.9937ZM33.2281 29.825L30.8047 31.7094C29.3281 32.8625 27.1859 32.5625 26.0797 31.0437C25.0391 29.6141 25.3016 27.6172 26.675 26.5062L30.575 23.3516C30.0312 23.1219 29.4453 23.0047 28.85 23.0047C27.9688 23 27.1109 23.2625 26.375 23.75L23 26V36.5H24.3219L28.6063 40.4094C29.525 41.2484 30.9453 41.1828 31.7844 40.2641C32.0422 39.9781 32.2156 39.6453 32.3047 39.2984L33.1016 40.0297C34.0156 40.8687 35.4406 40.8078 36.2797 39.8937C36.4906 39.6641 36.6453 39.3969 36.7438 39.1203C37.6531 39.7297 38.8906 39.6031 39.6547 38.7687C40.4937 37.8547 40.4328 36.4297 39.5187 35.5906L33.2281 29.825ZM17.75 26C17.3375 26 17 26.3375 17 26.75V36.5C17 37.3297 17.6703 38 18.5 38H20C20.8297 38 21.5 37.3297 21.5 36.5V26H17.75ZM19.25 35C19.4489 35 19.6397 35.079 19.7803 35.2197C19.921 35.3603 20 35.5511 20 35.75C20 35.9489 19.921 36.1397 19.7803 36.2803C19.6397 36.421 19.4489 36.5 19.25 36.5C19.0511 36.5 18.8603 36.421 18.7197 36.2803C18.579 36.1397 18.5 35.9489 18.5 35.75C18.5 35.5511 18.579 35.3603 18.7197 35.2197C18.8603 35.079 19.0511 35 19.25 35ZM42.5 26V36.5C42.5 37.3297 43.1703 38 44 38H45.5C46.3297 38 47 37.3297 47 36.5V26.75C47 26.3375 46.6625 26 46.25 26H42.5ZM44 35.75C44 35.5511 44.079 35.3603 44.2197 35.2197C44.3603 35.079 44.5511 35 44.75 35C44.9489 35 45.1397 35.079 45.2803 35.2197C45.421 35.3603 45.5 35.5511 45.5 35.75C45.5 35.9489 45.421 36.1397 45.2803 36.2803C45.1397 36.421 44.9489 36.5 44.75 36.5C44.5511 36.5 44.3603 36.421 44.2197 36.2803C44.079 36.1397 44 35.9489 44 35.75Z" fill="#CA8A04"/>
</svg>
