<svg width="64" height="64" viewBox="0 0 64 64" fill="none" xmlns="http://www.w3.org/2000/svg">
<rect width="64" height="64" rx="12" fill="#FFEDD5"/>
<path d="M44 48H20V16H44V48Z" stroke="#E5E7EB"/>
<path d="M44 43H20V19H44V43Z" stroke="#E5E7EB"/>
<path d="M26.9891 22.0375L26.5016 23.5H23C21.3453 23.5 20 24.8453 20 26.5V38.5C20 40.1547 21.3453 41.5 23 41.5H41C42.6547 41.5 44 40.1547 44 38.5V26.5C44 24.8453 42.6547 23.5 41 23.5H37.4984L37.0109 22.0375C36.7062 21.1188 35.8484 20.5 34.8781 20.5H29.1219C28.1516 20.5 27.2938 21.1188 26.9891 22.0375ZM32 28C33.1935 28 34.3381 28.4741 35.182 29.318C36.0259 30.1619 36.5 31.3065 36.5 32.5C36.5 33.6935 36.0259 34.8381 35.182 35.682C34.3381 36.5259 33.1935 37 32 37C30.8065 37 29.6619 36.5259 28.818 35.682C27.9741 34.8381 27.5 33.6935 27.5 32.5C27.5 31.3065 27.9741 30.1619 28.818 29.318C29.6619 28.4741 30.8065 28 32 28Z" fill="#EA580C"/>
</svg>
