<svg width="64" height="64" viewBox="0 0 64 64" fill="none" xmlns="http://www.w3.org/2000/svg">
<rect width="64" height="64" rx="12" fill="#2F80ED"/>
<g clip-path="url(#clip0_2_252)">
<path d="M32 44C35.1826 44 38.2348 42.7357 40.4853 40.4853C42.7357 38.2348 44 35.1826 44 32C44 28.8174 42.7357 25.7652 40.4853 23.5147C38.2348 21.2643 35.1826 20 32 20C28.8174 20 25.7652 21.2643 23.5147 23.5147C21.2643 25.7652 20 28.8174 20 32C20 35.1826 21.2643 38.2348 23.5147 40.4853C25.7652 42.7357 28.8174 44 32 44ZM27.9594 27.7484C28.3297 26.7031 29.3234 26 30.4344 26H33.1672C34.8031 26 36.125 27.3266 36.125 28.9578C36.125 30.0172 35.5578 30.9969 34.6391 31.5266L33.125 32.3937C33.1156 33.0031 32.6141 33.5 32 33.5C31.3766 33.5 30.875 32.9984 30.875 32.375V31.7422C30.875 31.3391 31.0906 30.9688 31.4422 30.7672L33.5187 29.5766C33.7391 29.45 33.875 29.2156 33.875 28.9625C33.875 28.5687 33.5562 28.2547 33.1672 28.2547H30.4344C30.275 28.2547 30.1344 28.3531 30.0828 28.5031L30.0641 28.5594C29.8578 29.1453 29.2109 29.45 28.6297 29.2437C28.0484 29.0375 27.7391 28.3906 27.9453 27.8094L27.9641 27.7531L27.9594 27.7484ZM30.5 36.5C30.5 36.1022 30.658 35.7206 30.9393 35.4393C31.2206 35.158 31.6022 35 32 35C32.3978 35 32.7794 35.158 33.0607 35.4393C33.342 35.7206 33.5 36.1022 33.5 36.5C33.5 36.8978 33.342 37.2794 33.0607 37.5607C32.7794 37.842 32.3978 38 32 38C31.6022 38 31.2206 37.842 30.9393 37.5607C30.658 37.2794 30.5 36.8978 30.5 36.5Z" fill="white"/>
</g>
<defs>
<clipPath id="clip0_2_252">
<path d="M20 20H44V44H20V20Z" fill="white"/>
</clipPath>
</defs>
</svg>
