<svg width="15" height="16" viewBox="0 0 15 16" fill="none" xmlns="http://www.w3.org/2000/svg">
<g clip-path="url(#clip0_2_363)">
<path d="M14.2063 8.70627C14.5969 8.31565 14.5969 7.68127 14.2063 7.29065L9.20625 2.29065C8.81563 1.90002 8.18125 1.90002 7.79063 2.29065C7.4 2.68127 7.4 3.31565 7.79063 3.70627L11.0875 7.00002H1.5C0.946875 7.00002 0.5 7.4469 0.5 8.00002C0.5 8.55315 0.946875 9.00002 1.5 9.00002H11.0844L7.79375 12.2938C7.40312 12.6844 7.40312 13.3188 7.79375 13.7094C8.18437 14.1 8.81875 14.1 9.20938 13.7094L14.2094 8.7094L14.2063 8.70627Z" fill="#4F4F4F"/>
</g>
<defs>
<clipPath id="clip0_2_363">
<path d="M0.5 0H14.5V16H0.5V0Z" fill="white"/>
</clipPath>
</defs>
</svg>
