<svg width="35" height="36" viewBox="0 0 35 36" fill="none" xmlns="http://www.w3.org/2000/svg">
<g clip-path="url(#clip0_2_213)">
<path d="M24.2543 16.916C22.7366 17.1973 21.122 16.7051 19.9488 15.4277L17.8983 13.1953C17.091 12.3164 16.6389 11.1328 16.6389 9.89062V9.18164L12.3495 6.63281C12.0642 6.46289 11.8866 6.12891 11.9028 5.77148C11.9189 5.41406 12.1127 5.09766 12.4141 4.95117L14.9543 3.7207C15.9446 3.24609 17.0156 3 18.1028 3H19.0769C21.0521 3 22.9519 3.82031 24.3889 5.29102L26.7892 7.75195C28.0917 9.08789 28.576 11.0156 28.2208 12.791L29.0712 13.7227L29.5017 13.2539C30.0076 12.7031 30.8257 12.7031 31.3262 13.2539L32.6179 14.6602C33.1238 15.2109 33.1238 16.1016 32.6179 16.6465L27.8818 21.8027C27.3759 22.3535 26.5578 22.3535 26.0573 21.8027L24.7656 20.3965C24.2597 19.8457 24.2597 18.9551 24.7656 18.4102L25.1962 17.9414L24.2543 16.916ZM3.47465 25.0957L16.0415 13.6992C16.2299 13.9863 16.4451 14.2617 16.6766 14.5195L18.7271 16.752C19.05 17.1035 19.3944 17.4082 19.7604 17.6719L9.26024 31.3945C8.47986 32.4141 7.32274 33 6.10642 33C3.83524 33 2 30.9961 2 28.5293C2 27.2051 2.54358 25.9453 3.47465 25.0957Z" fill="white"/>
</g>
<defs>
<clipPath id="clip0_2_213">
<path d="M2 3H33V33H2V3Z" fill="white"/>
</clipPath>
</defs>
</svg>
