<svg width="60" height="50" viewBox="0 0 60 50" fill="none" xmlns="http://www.w3.org/2000/svg">
<path d="M13.5005 0C15.4896 0 17.3973 0.8231 18.8038 2.28823C20.2103 3.75336 21.0005 5.7405 21.0005 7.8125C21.0005 9.8845 20.2103 11.8716 18.8038 13.3368C17.3973 14.8019 15.4896 15.625 13.5005 15.625C11.5114 15.625 9.60371 14.8019 8.19719 13.3368C6.79066 11.8716 6.00049 9.8845 6.00049 7.8125C6.00049 5.7405 6.79066 3.75336 8.19719 2.28823C9.60371 0.8231 11.5114 0 13.5005 0ZM48.0005 0C49.9896 0 51.8973 0.8231 53.3038 2.28823C54.7103 3.75336 55.5005 5.7405 55.5005 7.8125C55.5005 9.8845 54.7103 11.8716 53.3038 13.3368C51.8973 14.8019 49.9896 15.625 48.0005 15.625C46.0114 15.625 44.1037 14.8019 42.6972 13.3368C41.2907 11.8716 40.5005 9.8845 40.5005 7.8125C40.5005 5.7405 41.2907 3.75336 42.6972 2.28823C44.1037 0.8231 46.0114 0 48.0005 0ZM0.000488281 29.1699C0.000488281 23.418 4.48174 18.75 10.0036 18.75H14.0067C15.4974 18.75 16.913 19.0918 18.188 19.6973C18.0661 20.4004 18.0099 21.1328 18.0099 21.875C18.0099 25.6055 19.5849 28.9551 22.0692 31.25C22.0505 31.25 22.0317 31.25 22.0036 31.25H1.99736C0.900488 31.25 0.000488281 30.3125 0.000488281 29.1699ZM37.9974 31.25C37.9786 31.25 37.9599 31.25 37.9317 31.25C40.4255 28.9551 41.9911 25.6055 41.9911 21.875C41.9911 21.1328 41.9255 20.4102 41.813 19.6973C43.088 19.082 44.5036 18.75 45.9942 18.75H49.9974C55.5192 18.75 60.0005 23.418 60.0005 29.1699C60.0005 30.3223 59.1005 31.25 58.0036 31.25H37.9974ZM21.0005 21.875C21.0005 19.3886 21.9487 17.004 23.6365 15.2459C25.3244 13.4877 27.6135 12.5 30.0005 12.5C32.3874 12.5 34.6766 13.4877 36.3644 15.2459C38.0523 17.004 39.0005 19.3886 39.0005 21.875C39.0005 24.3614 38.0523 26.746 36.3644 28.5041C34.6766 30.2623 32.3874 31.25 30.0005 31.25C27.6135 31.25 25.3244 30.2623 23.6365 28.5041C21.9487 26.746 21.0005 24.3614 21.0005 21.875ZM12.0005 47.3926C12.0005 40.2051 17.5974 34.375 24.4974 34.375H35.5036C42.4036 34.375 48.0005 40.2051 48.0005 47.3926C48.0005 48.8281 46.8849 50 45.4974 50H14.5036C13.1255 50 12.0005 48.8379 12.0005 47.3926Z" fill="#A855F7"/>
</svg>
